<svg xmlns="http://www.w3.org/2000/svg" xmlns:xlink="http://www.w3.org/1999/xlink" width="600" zoomAndPan="magnify" viewBox="0 0 450 201.75" height="269" preserveAspectRatio="xMidYMid meet" version="1.0"><defs><g/></defs><g fill="#5bd9d9" fill-opacity="1"><g transform="translate(39.230196, 94.634847)"><g><path d="M 1.671875 -43.078125 C 1.671875 -43.484375 1.800781 -43.816406 2.0625 -44.078125 C 2.320312 -44.335938 2.691406 -44.46875 3.171875 -44.46875 L 39.015625 -44.46875 C 39.492188 -44.46875 39.859375 -44.335938 40.109375 -44.078125 C 40.367188 -43.816406 40.5 -43.484375 40.5 -43.078125 L 40.5 -35.953125 C 40.5 -35.191406 40.0625 -34.8125 39.1875 -34.8125 L 28.578125 -34.8125 C 28.097656 -34.8125 27.859375 -34.613281 27.859375 -34.21875 L 27.859375 -1.3125 C 27.859375 -0.875 27.757812 -0.546875 27.5625 -0.328125 C 27.363281 -0.109375 27.082031 0 26.71875 0 L 15.34375 0 C 14.625 0 14.265625 -0.398438 14.265625 -1.203125 L 14.265625 -33.96875 C 14.265625 -34.53125 14.046875 -34.8125 13.609375 -34.8125 L 3.0625 -34.8125 C 2.132812 -34.8125 1.671875 -35.191406 1.671875 -35.953125 Z M 1.671875 -43.078125 "/></g></g></g><g fill="#5bd9d9" fill-opacity="1"><g transform="translate(81.417877, 94.634847)"><g><path d="M 17.671875 -17.796875 C 17.390625 -17.796875 17.160156 -17.703125 16.984375 -17.515625 C 16.804688 -17.335938 16.71875 -17.128906 16.71875 -16.890625 L 16.71875 -1.734375 C 16.71875 -1.097656 16.554688 -0.648438 16.234375 -0.390625 C 15.921875 -0.128906 15.421875 0 14.734375 0 L 4.734375 0 C 4.128906 0 3.707031 -0.117188 3.46875 -0.359375 C 3.226562 -0.597656 3.109375 -0.976562 3.109375 -1.5 L 3.109375 -43.078125 C 3.109375 -43.523438 3.207031 -43.867188 3.40625 -44.109375 C 3.613281 -44.347656 3.894531 -44.46875 4.25 -44.46875 L 15.640625 -44.46875 C 15.960938 -44.46875 16.222656 -44.351562 16.421875 -44.125 C 16.617188 -43.90625 16.71875 -43.597656 16.71875 -43.203125 L 16.71875 -29.296875 C 16.71875 -28.503906 17.078125 -28.109375 17.796875 -28.109375 L 27.859375 -28.109375 C 28.578125 -28.109375 28.9375 -28.503906 28.9375 -29.296875 L 28.9375 -43.203125 C 28.9375 -43.597656 29.035156 -43.90625 29.234375 -44.125 C 29.441406 -44.351562 29.703125 -44.46875 30.015625 -44.46875 L 41.40625 -44.46875 C 41.769531 -44.46875 42.050781 -44.347656 42.25 -44.109375 C 42.445312 -43.867188 42.546875 -43.523438 42.546875 -43.078125 L 42.546875 -1.5 C 42.546875 -0.976562 42.425781 -0.597656 42.1875 -0.359375 C 41.945312 -0.117188 41.523438 0 40.921875 0 L 30.921875 0 C 30.242188 0 29.742188 -0.128906 29.421875 -0.390625 C 29.097656 -0.648438 28.9375 -1.097656 28.9375 -1.734375 L 28.9375 -16.890625 C 28.9375 -17.128906 28.847656 -17.335938 28.671875 -17.515625 C 28.492188 -17.703125 28.265625 -17.796875 27.984375 -17.796875 Z M 17.671875 -17.796875 "/></g></g></g><g fill="#5bd9d9" fill-opacity="1"><g transform="translate(127.08125, 94.634847)"><g><path d="M 3.109375 -43.078125 C 3.109375 -44.003906 3.488281 -44.46875 4.25 -44.46875 L 36.609375 -44.46875 C 37.328125 -44.46875 37.6875 -44.046875 37.6875 -43.203125 L 37.625 -36.25 C 37.625 -35.175781 37.109375 -34.640625 36.078125 -34.640625 L 18.09375 -34.640625 C 17.175781 -34.640625 16.71875 -34.257812 16.71875 -33.5 L 16.71875 -28.40625 C 16.71875 -28 16.816406 -27.6875 17.015625 -27.46875 C 17.210938 -27.25 17.472656 -27.140625 17.796875 -27.140625 L 28.578125 -27.140625 C 29.421875 -27.140625 29.84375 -26.742188 29.84375 -25.953125 L 29.84375 -18.515625 C 29.84375 -17.835938 29.484375 -17.5 28.765625 -17.5 L 17.671875 -17.5 C 17.390625 -17.5 17.160156 -17.414062 16.984375 -17.25 C 16.804688 -17.09375 16.71875 -16.894531 16.71875 -16.65625 L 16.71875 -10.671875 C 16.71875 -10.347656 16.765625 -10.125 16.859375 -10 C 16.960938 -9.882812 17.15625 -9.828125 17.4375 -9.828125 L 36.90625 -9.828125 C 37.789062 -9.828125 38.234375 -9.445312 38.234375 -8.6875 L 38.234375 -1.3125 C 38.234375 -0.914062 38.113281 -0.597656 37.875 -0.359375 C 37.632812 -0.117188 37.273438 0 36.796875 0 L 4.734375 0 C 4.128906 0 3.707031 -0.117188 3.46875 -0.359375 C 3.226562 -0.597656 3.109375 -0.976562 3.109375 -1.5 Z M 3.109375 -43.078125 "/></g></g></g><g fill="#f2c53d" fill-opacity="0.6118"><g transform="translate(51.792667, 146.578224)"><g><path d="M 56 -2.5625 C 56.101562 -2.34375 56.15625 -2.046875 56.15625 -1.671875 C 56.15625 -1.191406 56.007812 -0.789062 55.71875 -0.46875 C 55.425781 -0.15625 55.039062 0 54.5625 0 L 39.0625 0 C 37.945312 0 37.226562 -0.554688 36.90625 -1.671875 L 29.40625 -22.296875 C 29.238281 -22.710938 28.96875 -23.023438 28.59375 -23.234375 C 28.226562 -23.453125 27.671875 -23.5625 26.921875 -23.5625 L 23.25 -23.5625 C 22.925781 -23.5625 22.6875 -23.453125 22.53125 -23.234375 C 22.375 -23.023438 22.296875 -22.84375 22.296875 -22.6875 L 22.296875 -2.3125 C 22.296875 -1.457031 22.082031 -0.859375 21.65625 -0.515625 C 21.226562 -0.171875 20.5625 0 19.65625 0 L 6.234375 0 C 5.429688 0 4.882812 -0.15625 4.59375 -0.46875 C 4.300781 -0.789062 4.15625 -1.300781 4.15625 -2 L 4.15625 -57.4375 C 4.15625 -58.664062 4.660156 -59.28125 5.671875 -59.28125 L 32.359375 -59.28125 C 40.078125 -59.28125 46.066406 -57.800781 50.328125 -54.84375 C 54.585938 -51.882812 56.71875 -47.71875 56.71875 -42.34375 C 56.71875 -38.664062 55.742188 -35.390625 53.796875 -32.515625 C 51.859375 -29.640625 49.34375 -27.613281 46.25 -26.4375 C 45.9375 -26.28125 45.78125 -26.015625 45.78125 -25.640625 C 45.78125 -25.484375 45.832031 -25.242188 45.9375 -24.921875 Z M 31.640625 -35.46875 C 33.660156 -35.46875 35.21875 -35.988281 36.3125 -37.03125 C 37.40625 -38.070312 37.953125 -39.46875 37.953125 -41.21875 C 37.953125 -43.1875 37.296875 -44.71875 35.984375 -45.8125 C 34.679688 -46.90625 33.070312 -47.453125 31.15625 -47.453125 L 24.125 -47.453125 C 23.4375 -47.453125 22.957031 -47.332031 22.6875 -47.09375 C 22.425781 -46.851562 22.296875 -46.441406 22.296875 -45.859375 L 22.296875 -37.15625 C 22.296875 -36.5625 22.382812 -36.128906 22.5625 -35.859375 C 22.75 -35.597656 23.109375 -35.46875 23.640625 -35.46875 Z M 31.640625 -35.46875 "/></g></g></g><g fill="#f2c53d" fill-opacity="0.6118"><g transform="translate(110.833765, 146.578224)"><g><path d="M 54.640625 -23.40625 C 54.640625 -14.675781 52.429688 -8.457031 48.015625 -4.75 C 43.597656 -1.050781 37.285156 0.796875 29.078125 0.796875 C 19.867188 0.796875 13.304688 -1.332031 9.390625 -5.59375 C 5.472656 -9.851562 3.515625 -16.320312 3.515625 -25 L 3.515625 -57.4375 C 3.515625 -58.019531 3.644531 -58.472656 3.90625 -58.796875 C 4.175781 -59.117188 4.550781 -59.28125 5.03125 -59.28125 L 20.21875 -59.28125 C 21.175781 -59.28125 21.65625 -58.71875 21.65625 -57.59375 L 21.65625 -23.09375 C 21.65625 -19.144531 22.410156 -16.289062 23.921875 -14.53125 C 25.441406 -12.78125 27.613281 -11.90625 30.4375 -11.90625 C 33.207031 -11.90625 35.441406 -12.78125 37.140625 -14.53125 C 38.847656 -16.289062 39.703125 -19.222656 39.703125 -23.328125 L 39.703125 -57.4375 C 39.703125 -58.664062 40.207031 -59.28125 41.21875 -59.28125 L 53.203125 -59.28125 C 54.160156 -59.28125 54.640625 -58.71875 54.640625 -57.59375 Z M 54.640625 -23.40625 "/></g></g></g><g fill="#f2c53d" fill-opacity="0.6118"><g transform="translate(168.996039, 146.578224)"><g><path d="M 30.765625 -60.078125 C 35.179688 -60.078125 39.171875 -59.289062 42.734375 -57.71875 C 46.304688 -56.144531 49.238281 -53.972656 51.53125 -51.203125 C 53.820312 -48.441406 55.3125 -45.273438 56 -41.703125 C 56.164062 -41.066406 56.25 -40.5625 56.25 -40.1875 C 56.25 -39.707031 56.15625 -39.382812 55.96875 -39.21875 C 55.78125 -39.0625 55.445312 -38.957031 54.96875 -38.90625 L 40.984375 -38.03125 C 40.453125 -38.03125 40.101562 -38.125 39.9375 -38.3125 C 39.78125 -38.5 39.625 -38.910156 39.46875 -39.546875 C 38.988281 -42.097656 38.109375 -44.109375 36.828125 -45.578125 C 35.546875 -47.046875 33.679688 -47.78125 31.234375 -47.78125 C 28.097656 -47.78125 25.675781 -46.394531 23.96875 -43.625 C 22.257812 -40.851562 21.40625 -36.351562 21.40625 -30.125 C 21.40625 -23.675781 22.191406 -19.09375 23.765625 -16.375 C 25.335938 -13.65625 27.800781 -12.296875 31.15625 -12.296875 C 33.976562 -12.296875 36.390625 -13.015625 38.390625 -14.453125 C 40.390625 -15.898438 42.050781 -18.300781 43.375 -21.65625 C 43.539062 -22.132812 43.992188 -22.375 44.734375 -22.375 C 45.109375 -22.375 45.40625 -22.347656 45.625 -22.296875 L 55.609375 -20.296875 C 56.398438 -20.023438 56.796875 -19.410156 56.796875 -18.453125 C 56.796875 -16.960938 55.878906 -14.660156 54.046875 -11.546875 C 52.210938 -8.429688 49.335938 -5.59375 45.421875 -3.03125 C 41.503906 -0.476562 36.5625 0.796875 30.59375 0.796875 C 24.945312 0.796875 19.992188 -0.546875 15.734375 -3.234375 C 11.472656 -5.921875 8.179688 -9.617188 5.859375 -14.328125 C 3.546875 -19.046875 2.390625 -24.414062 2.390625 -30.4375 C 2.390625 -36.40625 3.546875 -41.625 5.859375 -46.09375 C 8.179688 -50.570312 11.484375 -54.019531 15.765625 -56.4375 C 20.054688 -58.863281 25.054688 -60.078125 30.765625 -60.078125 Z M 30.765625 -60.078125 "/></g></g></g><g fill="#f2c53d" fill-opacity="0.6118"><g transform="translate(227.877347, 146.578224)"><g><path d="M 59.515625 -2.484375 C 59.734375 -2.054688 59.84375 -1.628906 59.84375 -1.203125 C 59.84375 -0.398438 59.363281 0 58.40625 0 L 42.828125 0 C 41.390625 0 40.429688 -0.53125 39.953125 -1.59375 L 30.203125 -23.8125 C 29.984375 -24.125 29.769531 -24.28125 29.5625 -24.28125 C 29.289062 -24.28125 28.914062 -23.988281 28.4375 -23.40625 L 22.765625 -16.140625 C 22.453125 -15.765625 22.296875 -15.175781 22.296875 -14.375 L 22.296875 -2.3125 C 22.296875 -1.457031 22.082031 -0.859375 21.65625 -0.515625 C 21.226562 -0.171875 20.5625 0 19.65625 0 L 6.3125 0 C 5.507812 0 4.945312 -0.15625 4.625 -0.46875 C 4.3125 -0.789062 4.15625 -1.300781 4.15625 -2 L 4.15625 -57.4375 C 4.15625 -58.019531 4.285156 -58.472656 4.546875 -58.796875 C 4.816406 -59.117188 5.191406 -59.28125 5.671875 -59.28125 L 20.84375 -59.28125 C 21.8125 -59.28125 22.296875 -58.71875 22.296875 -57.59375 L 22.296875 -37.390625 C 22.296875 -36.753906 22.425781 -36.4375 22.6875 -36.4375 C 22.90625 -36.4375 23.171875 -36.617188 23.484375 -36.984375 L 38.1875 -57.59375 C 38.664062 -58.238281 39.128906 -58.679688 39.578125 -58.921875 C 40.035156 -59.160156 40.71875 -59.28125 41.625 -59.28125 L 53.765625 -59.28125 C 54.398438 -59.28125 54.90625 -59.160156 55.28125 -58.921875 C 55.65625 -58.679688 55.84375 -58.347656 55.84375 -57.921875 C 55.84375 -57.546875 55.707031 -57.226562 55.4375 -56.96875 L 42.34375 -40.90625 C 41.96875 -40.476562 41.78125 -40.023438 41.78125 -39.546875 C 41.78125 -39.171875 41.890625 -38.769531 42.109375 -38.34375 Z M 59.515625 -2.484375 "/></g></g></g><g fill="#f2c53d" fill-opacity="0.6118"><g transform="translate(289.554918, 146.578224)"><g><path d="M 54.640625 -23.40625 C 54.640625 -14.675781 52.429688 -8.457031 48.015625 -4.75 C 43.597656 -1.050781 37.285156 0.796875 29.078125 0.796875 C 19.867188 0.796875 13.304688 -1.332031 9.390625 -5.59375 C 5.472656 -9.851562 3.515625 -16.320312 3.515625 -25 L 3.515625 -57.4375 C 3.515625 -58.019531 3.644531 -58.472656 3.90625 -58.796875 C 4.175781 -59.117188 4.550781 -59.28125 5.03125 -59.28125 L 20.21875 -59.28125 C 21.175781 -59.28125 21.65625 -58.71875 21.65625 -57.59375 L 21.65625 -23.09375 C 21.65625 -19.144531 22.410156 -16.289062 23.921875 -14.53125 C 25.441406 -12.78125 27.613281 -11.90625 30.4375 -11.90625 C 33.207031 -11.90625 35.441406 -12.78125 37.140625 -14.53125 C 38.847656 -16.289062 39.703125 -19.222656 39.703125 -23.328125 L 39.703125 -57.4375 C 39.703125 -58.664062 40.207031 -59.28125 41.21875 -59.28125 L 53.203125 -59.28125 C 54.160156 -59.28125 54.640625 -58.71875 54.640625 -57.59375 Z M 54.640625 -23.40625 "/></g></g></g><g fill="#f2c53d" fill-opacity="0.6118"><g transform="translate(347.717204, 146.578224)"><g><path d="M 39.46875 -43.375 C 38.1875 -44.757812 36.8125 -45.820312 35.34375 -46.5625 C 33.882812 -47.3125 31.769531 -47.6875 29 -47.6875 C 26.226562 -47.6875 24.175781 -47.285156 22.84375 -46.484375 C 21.507812 -45.691406 20.84375 -44.738281 20.84375 -43.625 C 20.84375 -41.707031 22.550781 -40.347656 25.96875 -39.546875 L 39.21875 -36.109375 C 44.070312 -34.878906 47.722656 -32.734375 50.171875 -29.671875 C 52.617188 -26.609375 53.84375 -22.945312 53.84375 -18.6875 C 53.84375 -14.75 52.800781 -11.316406 50.71875 -8.390625 C 48.644531 -5.460938 45.675781 -3.195312 41.8125 -1.59375 C 37.957031 0 33.445312 0.796875 28.28125 0.796875 C 22.425781 0.796875 17.085938 -0.171875 12.265625 -2.109375 C 7.441406 -4.054688 4.097656 -6.601562 2.234375 -9.75 C 1.972656 -10.28125 1.84375 -10.675781 1.84375 -10.9375 C 1.84375 -11.476562 2.132812 -11.960938 2.71875 -12.390625 L 10.9375 -18.0625 C 11.53125 -18.425781 12.066406 -18.609375 12.546875 -18.609375 C 13.128906 -18.609375 13.609375 -18.367188 13.984375 -17.890625 C 15.796875 -15.546875 17.632812 -13.894531 19.5 -12.9375 C 21.363281 -11.976562 23.835938 -11.5 26.921875 -11.5 C 29.898438 -11.5 32.253906 -11.910156 33.984375 -12.734375 C 35.722656 -13.566406 36.59375 -14.703125 36.59375 -16.140625 C 36.59375 -17.148438 36.164062 -18.023438 35.3125 -18.765625 C 34.457031 -19.515625 33.207031 -20.078125 31.5625 -20.453125 L 19.40625 -23.40625 C 14.613281 -24.582031 10.804688 -26.78125 7.984375 -30 C 5.160156 -33.21875 3.75 -36.929688 3.75 -41.140625 C 3.75 -44.609375 4.757812 -47.789062 6.78125 -50.6875 C 8.8125 -53.59375 11.691406 -55.882812 15.421875 -57.5625 C 19.148438 -59.238281 23.460938 -60.078125 28.359375 -60.078125 C 33.148438 -60.078125 37.597656 -59.289062 41.703125 -57.71875 C 45.804688 -56.144531 48.765625 -54.054688 50.578125 -51.453125 C 50.941406 -50.972656 51.125 -50.519531 51.125 -50.09375 C 51.125 -49.71875 50.941406 -49.367188 50.578125 -49.046875 L 41.859375 -42.734375 C 41.597656 -42.523438 41.304688 -42.421875 40.984375 -42.421875 C 40.609375 -42.421875 40.101562 -42.738281 39.46875 -43.375 Z M 39.46875 -43.375 "/></g></g></g><g fill="#f2c53d" fill-opacity="1"><g transform="translate(49.038354, 143.823915)"><g><path d="M 56 -2.5625 C 56.101562 -2.34375 56.15625 -2.046875 56.15625 -1.671875 C 56.15625 -1.191406 56.007812 -0.789062 55.71875 -0.46875 C 55.425781 -0.15625 55.039062 0 54.5625 0 L 39.0625 0 C 37.945312 0 37.226562 -0.554688 36.90625 -1.671875 L 29.40625 -22.296875 C 29.238281 -22.710938 28.96875 -23.023438 28.59375 -23.234375 C 28.226562 -23.453125 27.671875 -23.5625 26.921875 -23.5625 L 23.25 -23.5625 C 22.925781 -23.5625 22.6875 -23.453125 22.53125 -23.234375 C 22.375 -23.023438 22.296875 -22.84375 22.296875 -22.6875 L 22.296875 -2.3125 C 22.296875 -1.457031 22.082031 -0.859375 21.65625 -0.515625 C 21.226562 -0.171875 20.5625 0 19.65625 0 L 6.234375 0 C 5.429688 0 4.882812 -0.15625 4.59375 -0.46875 C 4.300781 -0.789062 4.15625 -1.300781 4.15625 -2 L 4.15625 -57.4375 C 4.15625 -58.664062 4.660156 -59.28125 5.671875 -59.28125 L 32.359375 -59.28125 C 40.078125 -59.28125 46.066406 -57.800781 50.328125 -54.84375 C 54.585938 -51.882812 56.71875 -47.71875 56.71875 -42.34375 C 56.71875 -38.664062 55.742188 -35.390625 53.796875 -32.515625 C 51.859375 -29.640625 49.34375 -27.613281 46.25 -26.4375 C 45.9375 -26.28125 45.78125 -26.015625 45.78125 -25.640625 C 45.78125 -25.484375 45.832031 -25.242188 45.9375 -24.921875 Z M 31.640625 -35.46875 C 33.660156 -35.46875 35.21875 -35.988281 36.3125 -37.03125 C 37.40625 -38.070312 37.953125 -39.46875 37.953125 -41.21875 C 37.953125 -43.1875 37.296875 -44.71875 35.984375 -45.8125 C 34.679688 -46.90625 33.070312 -47.453125 31.15625 -47.453125 L 24.125 -47.453125 C 23.4375 -47.453125 22.957031 -47.332031 22.6875 -47.09375 C 22.425781 -46.851562 22.296875 -46.441406 22.296875 -45.859375 L 22.296875 -37.15625 C 22.296875 -36.5625 22.382812 -36.128906 22.5625 -35.859375 C 22.75 -35.597656 23.109375 -35.46875 23.640625 -35.46875 Z M 31.640625 -35.46875 "/></g></g></g><g fill="#f2c53d" fill-opacity="1"><g transform="translate(108.079453, 143.823915)"><g><path d="M 54.640625 -23.40625 C 54.640625 -14.675781 52.429688 -8.457031 48.015625 -4.75 C 43.597656 -1.050781 37.285156 0.796875 29.078125 0.796875 C 19.867188 0.796875 13.304688 -1.332031 9.390625 -5.59375 C 5.472656 -9.851562 3.515625 -16.320312 3.515625 -25 L 3.515625 -57.4375 C 3.515625 -58.019531 3.644531 -58.472656 3.90625 -58.796875 C 4.175781 -59.117188 4.550781 -59.28125 5.03125 -59.28125 L 20.21875 -59.28125 C 21.175781 -59.28125 21.65625 -58.71875 21.65625 -57.59375 L 21.65625 -23.09375 C 21.65625 -19.144531 22.410156 -16.289062 23.921875 -14.53125 C 25.441406 -12.78125 27.613281 -11.90625 30.4375 -11.90625 C 33.207031 -11.90625 35.441406 -12.78125 37.140625 -14.53125 C 38.847656 -16.289062 39.703125 -19.222656 39.703125 -23.328125 L 39.703125 -57.4375 C 39.703125 -58.664062 40.207031 -59.28125 41.21875 -59.28125 L 53.203125 -59.28125 C 54.160156 -59.28125 54.640625 -58.71875 54.640625 -57.59375 Z M 54.640625 -23.40625 "/></g></g></g><g fill="#f2c53d" fill-opacity="1"><g transform="translate(166.241727, 143.823915)"><g><path d="M 30.765625 -60.078125 C 35.179688 -60.078125 39.171875 -59.289062 42.734375 -57.71875 C 46.304688 -56.144531 49.238281 -53.972656 51.53125 -51.203125 C 53.820312 -48.441406 55.3125 -45.273438 56 -41.703125 C 56.164062 -41.066406 56.25 -40.5625 56.25 -40.1875 C 56.25 -39.707031 56.15625 -39.382812 55.96875 -39.21875 C 55.78125 -39.0625 55.445312 -38.957031 54.96875 -38.90625 L 40.984375 -38.03125 C 40.453125 -38.03125 40.101562 -38.125 39.9375 -38.3125 C 39.78125 -38.5 39.625 -38.910156 39.46875 -39.546875 C 38.988281 -42.097656 38.109375 -44.109375 36.828125 -45.578125 C 35.546875 -47.046875 33.679688 -47.78125 31.234375 -47.78125 C 28.097656 -47.78125 25.675781 -46.394531 23.96875 -43.625 C 22.257812 -40.851562 21.40625 -36.351562 21.40625 -30.125 C 21.40625 -23.675781 22.191406 -19.09375 23.765625 -16.375 C 25.335938 -13.65625 27.800781 -12.296875 31.15625 -12.296875 C 33.976562 -12.296875 36.390625 -13.015625 38.390625 -14.453125 C 40.390625 -15.898438 42.050781 -18.300781 43.375 -21.65625 C 43.539062 -22.132812 43.992188 -22.375 44.734375 -22.375 C 45.109375 -22.375 45.40625 -22.347656 45.625 -22.296875 L 55.609375 -20.296875 C 56.398438 -20.023438 56.796875 -19.410156 56.796875 -18.453125 C 56.796875 -16.960938 55.878906 -14.660156 54.046875 -11.546875 C 52.210938 -8.429688 49.335938 -5.59375 45.421875 -3.03125 C 41.503906 -0.476562 36.5625 0.796875 30.59375 0.796875 C 24.945312 0.796875 19.992188 -0.546875 15.734375 -3.234375 C 11.472656 -5.921875 8.179688 -9.617188 5.859375 -14.328125 C 3.546875 -19.046875 2.390625 -24.414062 2.390625 -30.4375 C 2.390625 -36.40625 3.546875 -41.625 5.859375 -46.09375 C 8.179688 -50.570312 11.484375 -54.019531 15.765625 -56.4375 C 20.054688 -58.863281 25.054688 -60.078125 30.765625 -60.078125 Z M 30.765625 -60.078125 "/></g></g></g><g fill="#f2c53d" fill-opacity="1"><g transform="translate(225.123035, 143.823915)"><g><path d="M 59.515625 -2.484375 C 59.734375 -2.054688 59.84375 -1.628906 59.84375 -1.203125 C 59.84375 -0.398438 59.363281 0 58.40625 0 L 42.828125 0 C 41.390625 0 40.429688 -0.53125 39.953125 -1.59375 L 30.203125 -23.8125 C 29.984375 -24.125 29.769531 -24.28125 29.5625 -24.28125 C 29.289062 -24.28125 28.914062 -23.988281 28.4375 -23.40625 L 22.765625 -16.140625 C 22.453125 -15.765625 22.296875 -15.175781 22.296875 -14.375 L 22.296875 -2.3125 C 22.296875 -1.457031 22.082031 -0.859375 21.65625 -0.515625 C 21.226562 -0.171875 20.5625 0 19.65625 0 L 6.3125 0 C 5.507812 0 4.945312 -0.15625 4.625 -0.46875 C 4.3125 -0.789062 4.15625 -1.300781 4.15625 -2 L 4.15625 -57.4375 C 4.15625 -58.019531 4.285156 -58.472656 4.546875 -58.796875 C 4.816406 -59.117188 5.191406 -59.28125 5.671875 -59.28125 L 20.84375 -59.28125 C 21.8125 -59.28125 22.296875 -58.71875 22.296875 -57.59375 L 22.296875 -37.390625 C 22.296875 -36.753906 22.425781 -36.4375 22.6875 -36.4375 C 22.90625 -36.4375 23.171875 -36.617188 23.484375 -36.984375 L 38.1875 -57.59375 C 38.664062 -58.238281 39.128906 -58.679688 39.578125 -58.921875 C 40.035156 -59.160156 40.71875 -59.28125 41.625 -59.28125 L 53.765625 -59.28125 C 54.398438 -59.28125 54.90625 -59.160156 55.28125 -58.921875 C 55.65625 -58.679688 55.84375 -58.347656 55.84375 -57.921875 C 55.84375 -57.546875 55.707031 -57.226562 55.4375 -56.96875 L 42.34375 -40.90625 C 41.96875 -40.476562 41.78125 -40.023438 41.78125 -39.546875 C 41.78125 -39.171875 41.890625 -38.769531 42.109375 -38.34375 Z M 59.515625 -2.484375 "/></g></g></g><g fill="#f2c53d" fill-opacity="1"><g transform="translate(286.800606, 143.823915)"><g><path d="M 54.640625 -23.40625 C 54.640625 -14.675781 52.429688 -8.457031 48.015625 -4.75 C 43.597656 -1.050781 37.285156 0.796875 29.078125 0.796875 C 19.867188 0.796875 13.304688 -1.332031 9.390625 -5.59375 C 5.472656 -9.851562 3.515625 -16.320312 3.515625 -25 L 3.515625 -57.4375 C 3.515625 -58.019531 3.644531 -58.472656 3.90625 -58.796875 C 4.175781 -59.117188 4.550781 -59.28125 5.03125 -59.28125 L 20.21875 -59.28125 C 21.175781 -59.28125 21.65625 -58.71875 21.65625 -57.59375 L 21.65625 -23.09375 C 21.65625 -19.144531 22.410156 -16.289062 23.921875 -14.53125 C 25.441406 -12.78125 27.613281 -11.90625 30.4375 -11.90625 C 33.207031 -11.90625 35.441406 -12.78125 37.140625 -14.53125 C 38.847656 -16.289062 39.703125 -19.222656 39.703125 -23.328125 L 39.703125 -57.4375 C 39.703125 -58.664062 40.207031 -59.28125 41.21875 -59.28125 L 53.203125 -59.28125 C 54.160156 -59.28125 54.640625 -58.71875 54.640625 -57.59375 Z M 54.640625 -23.40625 "/></g></g></g><g fill="#f2c53d" fill-opacity="1"><g transform="translate(344.962891, 143.823915)"><g><path d="M 39.46875 -43.375 C 38.1875 -44.757812 36.8125 -45.820312 35.34375 -46.5625 C 33.882812 -47.3125 31.769531 -47.6875 29 -47.6875 C 26.226562 -47.6875 24.175781 -47.285156 22.84375 -46.484375 C 21.507812 -45.691406 20.84375 -44.738281 20.84375 -43.625 C 20.84375 -41.707031 22.550781 -40.347656 25.96875 -39.546875 L 39.21875 -36.109375 C 44.070312 -34.878906 47.722656 -32.734375 50.171875 -29.671875 C 52.617188 -26.609375 53.84375 -22.945312 53.84375 -18.6875 C 53.84375 -14.75 52.800781 -11.316406 50.71875 -8.390625 C 48.644531 -5.460938 45.675781 -3.195312 41.8125 -1.59375 C 37.957031 0 33.445312 0.796875 28.28125 0.796875 C 22.425781 0.796875 17.085938 -0.171875 12.265625 -2.109375 C 7.441406 -4.054688 4.097656 -6.601562 2.234375 -9.75 C 1.972656 -10.28125 1.84375 -10.675781 1.84375 -10.9375 C 1.84375 -11.476562 2.132812 -11.960938 2.71875 -12.390625 L 10.9375 -18.0625 C 11.53125 -18.425781 12.066406 -18.609375 12.546875 -18.609375 C 13.128906 -18.609375 13.609375 -18.367188 13.984375 -17.890625 C 15.796875 -15.546875 17.632812 -13.894531 19.5 -12.9375 C 21.363281 -11.976562 23.835938 -11.5 26.921875 -11.5 C 29.898438 -11.5 32.253906 -11.910156 33.984375 -12.734375 C 35.722656 -13.566406 36.59375 -14.703125 36.59375 -16.140625 C 36.59375 -17.148438 36.164062 -18.023438 35.3125 -18.765625 C 34.457031 -19.515625 33.207031 -20.078125 31.5625 -20.453125 L 19.40625 -23.40625 C 14.613281 -24.582031 10.804688 -26.78125 7.984375 -30 C 5.160156 -33.21875 3.75 -36.929688 3.75 -41.140625 C 3.75 -44.609375 4.757812 -47.789062 6.78125 -50.6875 C 8.8125 -53.59375 11.691406 -55.882812 15.421875 -57.5625 C 19.148438 -59.238281 23.460938 -60.078125 28.359375 -60.078125 C 33.148438 -60.078125 37.597656 -59.289062 41.703125 -57.71875 C 45.804688 -56.144531 48.765625 -54.054688 50.578125 -51.453125 C 50.941406 -50.972656 51.125 -50.519531 51.125 -50.09375 C 51.125 -49.71875 50.941406 -49.367188 50.578125 -49.046875 L 41.859375 -42.734375 C 41.597656 -42.523438 41.304688 -42.421875 40.984375 -42.421875 C 40.609375 -42.421875 40.101562 -42.738281 39.46875 -43.375 Z M 39.46875 -43.375 "/></g></g></g></svg>